<svg xmlns="http://www.w3.org/2000/svg" version="1.1" xmlns:xlink="http://www.w3.org/1999/xlink" width="1000" height="1000"><metadata><rdf:RDF xmlns:rdf="http://www.w3.org/1999/02/22-rdf-syntax-ns#" xmlns:dc="http://purl.org/dc/elements/1.1/"><rdf:Description><dc:creator>RealFaviconGenerator</dc:creator><dc:source>https://realfavicongenerator.net</dc:source></rdf:Description></rdf:RDF></metadata><g clip-path="url(#SvgjsClipPath1043)"><rect width="1000" height="1000" fill="#ffffff"></rect><g transform="matrix(3.827751196172249,0,0,3.827751196172249,100,369.85645933014354)"><svg xmlns="http://www.w3.org/2000/svg" width="209" height="68" viewBox="0 0 209 68" fill="none"><path d="M83.3832 28.2854L76.3865 17.7538H76.3467V26.5345C76.3467 27.1248 76.3865 27.6752 76.5987 28.2788H74.251C74.4632 27.6686 74.5096 27.1182 74.5096 26.5345V17.0243C74.5096 16.434 74.4698 15.8836 74.251 15.2734H79.2648L86.1355 25.5994H86.1819V17.0243C86.1819 16.434 86.1355 15.8836 85.9233 15.2734H88.271C88.0588 15.8836 88.0123 16.434 88.0123 17.0243V28.2854H83.3832Z" fill="#0072B9"></path><path d="M90.5334 15.5186H94.1147V17.7933H90.5334V15.5186ZM94.181 18.7284V26.1231C94.181 27.2638 94.2672 27.8275 94.3932 28.2785H90.2549C90.3809 27.8275 90.4671 27.2638 90.4671 26.1231V20.8772C90.4671 19.7365 90.3809 19.1728 90.2549 18.7218H94.181V18.7284Z" fill="#0072B9"></path><path d="M100.561 20.2342C100.07 20.2342 99.9172 20.4199 99.9172 20.9239V26.0836C99.9172 26.5943 100.063 26.78 100.561 26.78H105.574C105.893 26.78 106.297 26.7402 106.748 26.654L106.443 28.2788H98.7235C97.0191 28.2788 96.21 27.483 96.21 25.7189V21.2887C96.21 19.518 97.0191 18.7288 98.7235 18.7288H106.443L106.748 20.3536C106.297 20.2674 105.893 20.2342 105.574 20.2342H100.561Z" fill="#0072B9"></path><path d="M117.538 28.2854C119.242 28.2854 120.058 27.4896 120.058 25.7255V21.2953C120.058 19.5246 119.242 18.7354 117.538 18.7354H110.581C108.876 18.7354 108.067 19.5312 108.067 21.2953V25.7255C108.067 27.4896 108.876 28.2854 110.581 28.2854H117.538ZM112.418 26.7799C111.934 26.7799 111.781 26.6009 111.781 26.0902V20.9305C111.781 20.4199 111.934 20.2408 112.418 20.2408H115.701C116.198 20.2408 116.337 20.4265 116.337 20.9305V26.0902C116.337 26.6009 116.192 26.7799 115.701 26.7799H112.418Z" fill="#0072B9"></path><path d="M125.794 26.13C125.794 27.2707 125.88 27.8344 126.012 28.2854H121.874C122 27.8344 122.086 27.2707 122.086 26.13V17.4288C122.086 16.2881 122 15.7244 121.874 15.2734H125.8V26.1234" fill="#0072B9"></path><path d="M139.816 21.2887C139.816 19.518 139.007 18.7288 137.296 18.7288H128.422L128.19 20.3536C128.979 20.1679 129.364 20.148 129.981 20.148H135.571C135.91 20.148 136.109 20.2674 136.109 20.5923V21.2025C136.109 21.5275 135.91 21.6468 135.571 21.6468H130.345C128.588 21.6468 127.825 22.3432 127.825 24.9628C127.825 27.5825 128.588 28.2722 130.345 28.2722H134.948C135.697 28.2722 136.055 28.0533 136.38 27.2774H136.427L136.599 28.2722H140.035C139.902 27.8212 139.822 27.2575 139.822 26.1168V21.2754M136.109 23.1589V26.0836C136.109 26.5943 135.956 26.78 135.465 26.78H132.182C131.692 26.78 131.546 26.5943 131.546 26.0836V23.8486C131.546 23.338 131.692 23.1589 132.182 23.1589H136.109Z" fill="#0072B9"></path><path d="M141.905 15.5186H145.486V17.7933H141.905V15.5186ZM145.552 18.7284V26.1231C145.552 27.2638 145.638 27.8275 145.764 28.2785H141.626C141.752 27.8275 141.845 27.2638 141.845 26.1231V20.8772C141.845 19.7365 141.759 19.1728 141.626 18.7218H145.552V18.7284Z" fill="#0072B9"></path><path d="M158.888 26.1499C158.888 27.5758 158.033 28.2854 156.328 28.2854H147.793L147.514 26.6407C148.111 26.8197 148.582 26.8662 149.942 26.8662H154.465C154.955 26.8662 155.254 26.6208 155.254 26.2361V25.7056C155.254 25.3209 154.955 25.0755 154.465 25.0755H149.749C148.217 25.0755 147.468 24.2465 147.468 22.4758V21.3152C147.468 19.5445 148.217 18.7354 149.749 18.7354H158.603L158.881 20.3801C158.285 20.1944 157.814 20.1546 156.447 20.1546H151.752C151.308 20.1546 151.089 20.3403 151.089 20.7249V21.1759C151.089 21.5606 151.301 21.7463 151.752 21.7463H156.321C158.026 21.7463 158.881 22.4559 158.881 23.8818V26.1565" fill="#0072B9"></path><path d="M83.5358 43.3598L87.5017 33.9092H92.6017C92.3894 34.5193 92.3497 35.0698 92.3497 35.6534V45.1637C92.3497 45.7539 92.3894 46.2977 92.6017 46.9079H88.2113C88.4235 46.2977 88.4633 45.7473 88.4633 45.1637V35.7728H88.4235L83.748 46.9079H80.9758L76.3865 35.7728H76.3467V45.1637C76.3467 45.7539 76.3865 46.2977 76.5987 46.9079H74.251C74.4632 46.2977 74.5096 45.7473 74.5096 45.1637V35.6534C74.5096 35.0631 74.4698 34.5193 74.251 33.9092H79.6229L83.5291 43.3598" fill="#0072B9"></path><path d="M106.218 39.9244C106.218 38.1603 105.409 37.3645 103.698 37.3645H94.8244L94.5857 38.9893C95.3749 38.8103 95.7595 38.7837 96.3829 38.7837H101.974C102.312 38.7837 102.504 38.9031 102.504 39.2281V39.8382C102.504 40.1632 102.312 40.2892 101.974 40.2892H96.7477C94.9969 40.2892 94.2275 40.9789 94.2275 43.6052C94.2275 46.2315 94.9969 46.9212 96.7477 46.9212H101.35C102.1 46.9212 102.458 46.6957 102.783 45.9264H102.823L102.995 46.9212H106.43C106.304 46.4768 106.218 45.9065 106.218 44.7658V39.9244ZM102.504 41.7947V44.7194C102.504 45.23 102.358 45.4157 101.868 45.4157H98.5848C98.094 45.4157 97.9481 45.23 97.9481 44.7194V42.4844C97.9481 41.9737 98.094 41.7947 98.5848 41.7947H102.511H102.504Z" fill="#0072B9"></path><path d="M116.306 39.4735C115.643 39.3541 115.198 39.2745 113.766 39.2745H112.36C111.955 39.2745 111.716 39.4602 111.716 39.7852V44.7658C111.716 45.8999 111.803 46.4702 111.935 46.9212H107.797C107.923 46.4768 108.009 45.9065 108.009 44.7658V39.5199C108.009 38.3792 107.923 37.8155 107.797 37.3645H111.358L111.511 38.3991H111.551C111.657 37.6231 112.128 37.3645 113.282 37.3645H116.306V39.4801" fill="#0072B9"></path><path d="M117.777 34.1482H121.358V36.423H117.777V34.1482ZM121.424 37.3647V44.766C121.424 45.9001 121.51 46.4704 121.636 46.9214H117.498C117.624 46.477 117.71 45.9067 117.71 44.766V39.5201C117.71 38.3794 117.624 37.8157 117.498 37.3647H121.424Z" fill="#0072B9"></path><path d="M132.924 46.9146C134.628 46.9146 135.444 46.1187 135.444 44.3546V39.9244C135.444 38.1603 134.635 37.3645 132.924 37.3645H125.973C124.262 37.3645 123.453 38.1603 123.453 39.9244V44.3546C123.453 46.1254 124.262 46.9146 125.973 46.9146H132.924ZM127.804 45.4091C127.313 45.4091 127.16 45.2234 127.16 44.7127V39.5531C127.16 39.0424 127.313 38.8633 127.804 38.8633H131.087C131.577 38.8633 131.73 39.049 131.73 39.5531V44.7127C131.73 45.2234 131.584 45.4091 131.087 45.4091H127.804Z" fill="#0072B9"></path><path d="M156.583 43.0149V39.9244C156.583 38.1603 155.774 37.3645 154.063 37.3645H147.106C145.402 37.3645 144.586 38.1603 144.586 39.9244V44.3546C144.586 46.1254 145.395 46.9146 147.106 46.9146H156.278L156.577 45.2897C156.126 45.3759 155.721 45.4157 155.403 45.4157H148.937C148.446 45.4157 148.3 45.23 148.3 44.7194V43.0149H156.577M148.306 41.5029V39.5531C148.306 39.0424 148.452 38.8633 148.943 38.8633H152.226C152.717 38.8633 152.863 39.049 152.863 39.5531V41.5029H148.3H148.306Z" fill="#0072B9"></path><path d="M170.216 41.1847V45.1705C170.216 45.7607 170.255 46.3046 170.474 46.9147H165.951C166.163 46.3046 166.21 45.7541 166.21 45.1705V35.6602C166.21 35.07 166.163 34.5262 165.951 33.916H170.474C170.255 34.5262 170.216 35.0766 170.216 35.6602V39.52H175.614V35.6602C175.614 35.07 175.574 34.5262 175.355 33.916H179.878C179.666 34.5262 179.62 35.0766 179.62 35.6602V45.1705C179.62 45.7607 179.666 46.3046 179.878 46.9147H175.355C175.568 46.3046 175.614 45.7541 175.614 45.1705V41.1847H170.216Z" fill="#0072B9"></path><path d="M182.187 34.1482H185.775V36.423H182.187V34.1482ZM185.834 37.3647V44.766C185.834 45.9001 185.921 46.4704 186.047 46.9214H181.908C182.034 46.477 182.12 45.9067 182.12 44.766V39.5201C182.12 38.3794 182.034 37.8157 181.908 37.3647H185.834Z" fill="#0072B9"></path><path d="M188.501 34.1482H192.089V36.423H188.501V34.1482ZM192.149 37.3647V47.83C192.149 49.7002 191.214 50.5292 189.715 50.5292H183.998L183.739 48.8049C184.124 48.9242 184.953 49.0304 186.001 49.0304H187.513C188.176 49.0304 188.428 48.8447 188.428 48.0555V39.5201C188.428 38.3794 188.342 37.8157 188.216 37.3647H192.142H192.149Z" fill="#0072B9"></path><path d="M203.263 46.9146C204.968 46.9146 205.777 46.1187 205.777 44.3546V39.9244C205.777 38.1603 204.968 37.3645 203.263 37.3645H196.306C194.602 37.3645 193.786 38.1603 193.786 39.9244V44.3546C193.786 46.1254 194.595 46.9146 196.306 46.9146H203.263ZM198.143 45.4091C197.653 45.4091 197.5 45.2234 197.5 44.7127V39.5531C197.5 39.0424 197.653 38.8633 198.143 38.8633H201.433C201.924 38.8633 202.069 39.049 202.069 39.5531V44.7127C202.069 45.2234 201.917 45.4091 201.433 45.4091H198.143Z" fill="#0072B9"></path><path d="M208.881 50.9866H27.6152V60.0392H208.881V50.9866Z" fill="#1D1D1B"></path><path d="M78.206 55.8414C78.6039 55.6557 78.9024 55.4302 79.1212 55.1517C79.3401 54.8731 79.4462 54.515 79.4462 54.0706C79.4462 53.7523 79.3732 53.487 79.2339 53.2748C79.0947 53.0626 78.909 52.8901 78.6769 52.7575C78.4447 52.6249 78.1927 52.5387 77.9274 52.5055C77.6622 52.4657 77.3438 52.4458 76.9724 52.4458H74.2666V58.408H75.8848V56.2194H76.6143L78.3187 58.408H80.2951L78.206 55.8546M77.6887 54.6543C77.6356 54.7537 77.5561 54.8466 77.4433 54.9262C77.3239 55.0124 77.178 55.0654 77.0122 55.092C76.8398 55.1185 76.6276 55.1251 76.3689 55.1251H75.8782V53.5136H76.4551C76.6475 53.5136 76.8133 53.5135 76.9592 53.5268C77.1051 53.5334 77.2311 53.56 77.3438 53.6064C77.4964 53.6661 77.6091 53.7523 77.6688 53.8584C77.7351 53.9645 77.7683 54.0972 77.7683 54.2431C77.7683 54.4089 77.7418 54.5481 77.6887 54.6476V54.6543Z" fill="white"></path><path d="M85.5343 58.3945H80.998V52.439H85.5343V53.5863H82.6163V54.6209H85.3287V55.7749H82.6163V57.2472H85.5343V58.3945Z" fill="white"></path><path d="M91.8605 53.434C91.7279 53.1887 91.5355 52.9831 91.2835 52.8305C91.0713 52.6979 90.8259 52.5984 90.554 52.5321C90.2821 52.4658 89.9439 52.4326 89.5459 52.4326H86.8799V58.3948H88.4981V56.4582H89.5062C89.9638 56.4582 90.3484 56.3985 90.6535 56.2792C90.9586 56.1598 91.2371 55.9807 91.4891 55.742C91.6682 55.5695 91.8141 55.3573 91.9136 55.0987C92.013 54.8467 92.0595 54.5814 92.0595 54.3161C92.0595 53.9712 91.9931 53.6794 91.8605 53.4274M90.3153 54.7936C90.2688 54.913 90.1959 55.0125 90.0898 55.0987C89.9704 55.1982 89.8245 55.2578 89.6454 55.291C89.4664 55.3242 89.2409 55.3374 88.969 55.3374H88.5047V53.5534H88.7833C89.0485 53.5534 89.2608 53.5534 89.4199 53.5601C89.5791 53.5667 89.7449 53.6065 89.9107 53.6662C90.0367 53.7126 90.1495 53.7988 90.2423 53.9182C90.3352 54.0376 90.3816 54.1835 90.3816 54.3493C90.3816 54.5151 90.3617 54.6676 90.3153 54.7803V54.7936Z" fill="white"></path><path d="M98.6742 56.2394C98.6742 56.9755 98.4421 57.5392 97.9646 57.9305C97.4937 58.3218 96.7973 58.5141 95.8821 58.5141C94.9669 58.5141 94.2705 58.3218 93.7997 57.9305C93.3288 57.5392 93.0967 56.9755 93.0967 56.2394V52.4326H94.7149V56.1664C94.7149 56.5776 94.8077 56.8893 94.9868 57.0949C95.1725 57.3005 95.4709 57.4 95.8821 57.4C96.2933 57.4 96.5851 57.3005 96.7774 57.1082C96.9631 56.9158 97.056 56.5975 97.056 56.1664V52.4326H98.6742V56.2394Z" fill="white"></path><path d="M104.713 58.3945H100.184V52.439H104.713V53.5863H101.802V54.6209H104.508V55.7749H101.802V57.2472H104.713V58.3945Z" fill="white"></path><path d="M111.08 56.5179C111.08 57.1082 110.822 57.5857 110.298 57.9571C109.774 58.3285 109.064 58.5075 108.169 58.5075C107.652 58.5075 107.201 58.4611 106.809 58.3749C106.425 58.2887 106.06 58.1759 105.722 58.0433V56.6108H105.901C106.232 56.8628 106.61 57.0551 107.015 57.1944C107.433 57.3271 107.831 57.3934 108.209 57.3934C108.308 57.3934 108.434 57.3867 108.593 57.3668C108.752 57.3536 108.885 57.3271 108.985 57.2873C109.104 57.2408 109.21 57.1811 109.283 57.1082C109.363 57.0352 109.402 56.9291 109.402 56.7899C109.402 56.6572 109.343 56.5445 109.23 56.4516C109.111 56.3588 108.945 56.2792 108.719 56.2328C108.487 56.1797 108.242 56.1333 107.977 56.0869C107.718 56.0404 107.473 55.9808 107.24 55.9078C106.716 55.742 106.338 55.5232 106.113 55.2446C105.881 54.9661 105.761 54.6212 105.761 54.2034C105.761 53.6463 106.027 53.1887 106.551 52.8372C107.068 52.4857 107.744 52.3066 108.56 52.3066C108.971 52.3066 109.383 52.3464 109.78 52.4194C110.185 52.499 110.536 52.5918 110.828 52.7112V54.0906H110.656C110.404 53.8917 110.099 53.7259 109.734 53.5932C109.369 53.4606 108.998 53.3943 108.62 53.3943C108.487 53.3943 108.355 53.4009 108.222 53.4208C108.089 53.4341 107.963 53.4739 107.837 53.5203C107.731 53.5601 107.638 53.6264 107.559 53.7126C107.479 53.7988 107.439 53.8917 107.439 54.0044C107.439 54.1636 107.499 54.283 107.625 54.3692C107.751 54.4554 107.99 54.5284 108.335 54.6013C108.56 54.6477 108.786 54.6942 108.991 54.7339C109.203 54.7737 109.429 54.8334 109.674 54.9064C110.152 55.0589 110.503 55.2645 110.729 55.5165C110.954 55.7752 111.067 56.1134 111.067 56.5246" fill="white"></path><path d="M117.096 53.5863H115.139V58.3945H113.521V53.5863H111.564V52.439H117.096V53.5863Z" fill="white"></path><path d="M123.274 53.1423C122.697 52.5852 121.908 52.3066 120.907 52.3066C119.905 52.3066 119.109 52.5852 118.539 53.1423C117.962 53.6994 117.684 54.4554 117.684 55.417C117.684 56.3787 117.969 57.1215 118.539 57.6852C119.109 58.2423 119.899 58.5208 120.907 58.5208C121.915 58.5208 122.711 58.2423 123.281 57.6852C123.851 57.1215 124.137 56.372 124.137 55.417C124.137 54.462 123.851 53.6994 123.274 53.1423ZM121.504 57.2873C121.318 57.3602 121.119 57.4 120.913 57.4C120.708 57.4 120.502 57.3668 120.316 57.2873C120.131 57.2143 119.965 57.0949 119.826 56.9424C119.686 56.7832 119.574 56.5776 119.487 56.3256C119.401 56.0802 119.361 55.7752 119.361 55.417C119.361 55.0589 119.408 54.7671 119.494 54.5018C119.58 54.2365 119.7 54.031 119.832 53.8784C119.985 53.7193 120.151 53.6065 120.336 53.5336C120.515 53.4672 120.714 53.4274 120.92 53.4274C121.126 53.4274 121.318 53.4606 121.504 53.5402C121.689 53.6131 121.855 53.7259 122.001 53.8851C122.14 54.0376 122.253 54.2432 122.339 54.4952C122.425 54.7472 122.472 55.0523 122.472 55.4104C122.472 55.742 122.432 56.0338 122.359 56.2792C122.28 56.5312 122.167 56.7434 122.008 56.9225C121.862 57.0817 121.703 57.201 121.51 57.2806L121.504 57.2873Z" fill="white"></path><path d="M130.384 56.5179C130.384 57.1082 130.119 57.5857 129.595 57.9571C129.071 58.3285 128.361 58.5075 127.466 58.5075C126.949 58.5075 126.498 58.4611 126.106 58.3749C125.722 58.2887 125.357 58.1759 125.025 58.0433V56.6108H125.198C125.529 56.8628 125.907 57.0551 126.312 57.1944C126.723 57.3271 127.121 57.3934 127.499 57.3934C127.599 57.3934 127.725 57.3867 127.884 57.3668C128.043 57.3536 128.176 57.3271 128.275 57.2873C128.401 57.2408 128.494 57.1811 128.58 57.1082C128.66 57.0352 128.7 56.9291 128.7 56.7899C128.7 56.6572 128.64 56.5445 128.527 56.4516C128.414 56.3588 128.242 56.2792 128.016 56.2328C127.784 56.1797 127.532 56.1333 127.274 56.0869C127.015 56.0404 126.77 55.9808 126.544 55.9078C126.02 55.742 125.636 55.5232 125.41 55.2446C125.178 54.9661 125.065 54.6212 125.065 54.2034C125.065 53.6463 125.324 53.1887 125.848 52.8372C126.372 52.4857 127.042 52.3066 127.864 52.3066C128.275 52.3066 128.68 52.3464 129.084 52.4194C129.489 52.499 129.84 52.5918 130.132 52.7112V54.0906H129.96C129.708 53.8917 129.403 53.7259 129.038 53.5932C128.673 53.4606 128.302 53.3943 127.924 53.3943C127.791 53.3943 127.652 53.4009 127.519 53.4208C127.393 53.4341 127.26 53.4739 127.141 53.5203C127.028 53.5601 126.935 53.6264 126.856 53.7126C126.776 53.7988 126.743 53.8917 126.743 54.0044C126.743 54.1636 126.803 54.283 126.935 54.3692C127.061 54.4554 127.3 54.5284 127.645 54.6013C127.871 54.6477 128.096 54.6942 128.302 54.7339C128.514 54.7737 128.739 54.8334 128.985 54.9064C129.456 55.0589 129.814 55.2645 130.039 55.5165C130.271 55.7752 130.384 56.1134 130.384 56.5246" fill="white"></path><path d="M137.906 52.439H136.049L133.741 58.4011H135.366L135.804 57.1808H138.085L138.53 58.4011H140.207L137.899 52.439M136.195 56.0998L136.951 53.9909L137.714 56.0998H136.195Z" fill="white"></path><path d="M146.6 56.2394C146.6 56.9755 146.361 57.5392 145.89 57.9305C145.419 58.3218 144.723 58.5141 143.808 58.5141C142.893 58.5141 142.196 58.3218 141.725 57.9305C141.261 57.5392 141.022 56.9755 141.022 56.2394V52.4326H142.641V56.1664C142.641 56.5776 142.734 56.8893 142.919 57.0949C143.105 57.3005 143.397 57.4 143.808 57.4C144.219 57.4 144.511 57.3005 144.703 57.1082C144.889 56.9158 144.988 56.5975 144.988 56.1664V52.4326H146.607V56.2394" fill="white"></path><path d="M153.019 53.5863H151.063V58.3945H149.438V53.5863H147.488V52.439H153.019V53.5863Z" fill="white"></path><path d="M159.201 53.1423C158.624 52.5852 157.835 52.3066 156.833 52.3066C155.832 52.3066 155.036 52.5852 154.459 53.1423C153.889 53.6994 153.604 54.4554 153.604 55.417C153.604 56.3787 153.889 57.1215 154.459 57.6852C155.036 58.2423 155.825 58.5208 156.833 58.5208C157.841 58.5208 158.631 58.2423 159.208 57.6852C159.785 57.1215 160.063 56.372 160.063 55.417C160.063 54.462 159.778 53.6994 159.208 53.1423M157.43 57.2873C157.238 57.3602 157.046 57.4 156.833 57.4C156.621 57.4 156.429 57.3668 156.243 57.2873C156.051 57.2143 155.892 57.0949 155.752 56.9424C155.606 56.7832 155.5 56.5776 155.407 56.3256C155.321 56.0802 155.281 55.7752 155.281 55.417C155.281 55.0589 155.328 54.7671 155.414 54.5018C155.5 54.2365 155.613 54.031 155.752 53.8784C155.905 53.7193 156.071 53.6065 156.256 53.5336C156.435 53.4672 156.628 53.4274 156.833 53.4274C157.039 53.4274 157.231 53.4606 157.417 53.5402C157.603 53.6131 157.768 53.7259 157.914 53.8851C158.047 54.0376 158.166 54.2432 158.259 54.4952C158.345 54.7472 158.385 55.0523 158.385 55.4104C158.385 55.742 158.345 56.0338 158.272 56.2792C158.199 56.5312 158.08 56.7434 157.928 56.9225C157.788 57.0817 157.622 57.201 157.43 57.2806V57.2873Z" fill="white"></path><path d="M167.854 58.3945H166.229V54.4087L165.082 56.9951H163.974L162.82 54.4087V58.3945H161.288V52.439H163.172L164.571 55.4234L165.97 52.439H167.854V58.3945Z" fill="white"></path><path d="M174.678 53.1423C174.101 52.5852 173.312 52.3066 172.311 52.3066C171.309 52.3066 170.514 52.5852 169.943 53.1423C169.373 53.6994 169.081 54.4554 169.081 55.417C169.081 56.3787 169.373 57.1215 169.943 57.6852C170.514 58.2423 171.303 58.5208 172.311 58.5208C173.319 58.5208 174.108 58.2423 174.685 57.6852C175.262 57.1215 175.541 56.372 175.541 55.417C175.541 54.462 175.255 53.6994 174.678 53.1423ZM172.908 57.2873C172.722 57.3602 172.523 57.4 172.311 57.4C172.099 57.4 171.906 57.3668 171.721 57.2873C171.535 57.2143 171.369 57.0949 171.223 56.9424C171.084 56.7832 170.971 56.5776 170.885 56.3256C170.799 56.0802 170.759 55.7752 170.759 55.417C170.759 55.0589 170.805 54.7671 170.892 54.5018C170.978 54.2365 171.097 54.031 171.236 53.8784C171.389 53.7193 171.555 53.6065 171.734 53.5336C171.913 53.4672 172.105 53.4274 172.311 53.4274C172.516 53.4274 172.709 53.4606 172.894 53.5402C173.08 53.6131 173.246 53.7259 173.392 53.8851C173.538 54.0376 173.65 54.2432 173.73 54.4952C173.816 54.7472 173.863 55.0523 173.863 55.4104C173.863 55.742 173.823 56.0338 173.75 56.2792C173.67 56.5312 173.551 56.7434 173.392 56.9225C173.253 57.0817 173.093 57.201 172.901 57.2806L172.908 57.2873Z" fill="white"></path><path d="M181.69 53.5863H179.727V58.3945H178.115V53.5863H176.152V52.439H181.69V53.5863Z" fill="white"></path><path d="M187.872 53.1423C187.295 52.5852 186.506 52.3066 185.504 52.3066C184.503 52.3066 183.707 52.5852 183.137 53.1423C182.566 53.6994 182.274 54.4554 182.274 55.417C182.274 56.3787 182.56 57.1215 183.137 57.6852C183.707 58.2423 184.496 58.5208 185.504 58.5208C186.512 58.5208 187.308 58.2423 187.878 57.6852C188.449 57.1215 188.734 56.372 188.734 55.417C188.734 54.462 188.442 53.6994 187.872 53.1423ZM186.101 57.2873C185.915 57.3602 185.716 57.4 185.504 57.4C185.292 57.4 185.1 57.3668 184.914 57.2873C184.728 57.2143 184.556 57.0949 184.423 56.9424C184.277 56.7832 184.165 56.5776 184.078 56.3256C183.999 56.0802 183.952 55.7752 183.952 55.417C183.952 55.0589 183.999 54.7671 184.085 54.5018C184.178 54.2365 184.291 54.031 184.43 53.8784C184.576 53.7193 184.742 53.6065 184.927 53.5336C185.113 53.4672 185.305 53.4274 185.511 53.4274C185.716 53.4274 185.909 53.4606 186.094 53.5402C186.28 53.6131 186.446 53.7259 186.592 53.8851C186.731 54.0376 186.844 54.2432 186.93 54.4952C187.016 54.7472 187.063 55.0523 187.063 55.4104C187.063 55.742 187.03 56.0338 186.95 56.2792C186.877 56.5312 186.758 56.7434 186.598 56.9225C186.459 57.0817 186.293 57.201 186.108 57.2806L186.101 57.2873Z" fill="white"></path><path d="M193.9 55.8414C194.292 55.6557 194.603 55.4302 194.816 55.1517C195.028 54.8731 195.134 54.515 195.134 54.0706C195.134 53.7523 195.068 53.487 194.928 53.2748C194.789 53.0626 194.603 52.8901 194.365 52.7575C194.132 52.6249 193.88 52.5387 193.622 52.5055C193.35 52.4657 193.032 52.4458 192.667 52.4458H189.961V58.408H191.579V56.2194H192.315L194.013 58.408H195.996L193.907 55.8546M193.383 54.6543C193.33 54.7537 193.257 54.8466 193.144 54.9262C193.025 55.0124 192.879 55.0654 192.713 55.092C192.541 55.1185 192.329 55.1251 192.07 55.1251H191.579V53.5136H192.156C192.348 53.5136 192.514 53.5135 192.66 53.5268C192.806 53.5334 192.932 53.56 193.038 53.6064C193.191 53.6661 193.303 53.7523 193.363 53.8584C193.429 53.9645 193.456 54.0972 193.456 54.2431C193.456 54.4089 193.429 54.5481 193.383 54.6476V54.6543Z" fill="white"></path><path d="M201.229 58.3945H196.699V52.439H201.229V53.5863H198.317V54.6209H201.023V55.7749H198.317V57.2472H201.229V58.3945Z" fill="white"></path><path d="M207.594 56.5179C207.594 57.1082 207.335 57.5857 206.811 57.9571C206.287 58.3285 205.578 58.5075 204.676 58.5075C204.159 58.5075 203.708 58.4611 203.323 58.3749C202.932 58.2887 202.574 58.1759 202.235 58.0433V56.6108H202.414C202.746 56.8628 203.117 57.0551 203.535 57.1944C203.946 57.3271 204.344 57.3934 204.722 57.3934C204.822 57.3934 204.948 57.3867 205.107 57.3668C205.26 57.3536 205.399 57.3271 205.492 57.2873C205.618 57.2408 205.717 57.1811 205.797 57.1082C205.876 57.0352 205.916 56.9291 205.916 56.7899C205.916 56.6572 205.856 56.5445 205.744 56.4516C205.624 56.3588 205.452 56.2792 205.233 56.2328C205.001 56.1797 204.756 56.1333 204.49 56.0869C204.232 56.0404 203.986 55.9808 203.754 55.9078C203.23 55.742 202.852 55.5232 202.627 55.2446C202.395 54.9661 202.282 54.6212 202.282 54.2034C202.282 53.6463 202.54 53.1887 203.064 52.8372C203.588 52.4857 204.258 52.3066 205.08 52.3066C205.492 52.3066 205.896 52.3464 206.301 52.4194C206.699 52.499 207.05 52.5918 207.342 52.7112V54.0906H207.176C206.924 53.8917 206.619 53.7259 206.254 53.5932C205.89 53.4606 205.518 53.3943 205.14 53.3943C205.008 53.3943 204.875 53.4009 204.742 53.4208C204.61 53.4341 204.484 53.4739 204.364 53.5203C204.258 53.5601 204.165 53.6264 204.086 53.7126C204.006 53.7988 203.966 53.8917 203.966 54.0044C203.966 54.1636 204.033 54.283 204.159 54.3692C204.278 54.4554 204.517 54.5284 204.868 54.6013C205.1 54.6477 205.319 54.6942 205.531 54.7339C205.744 54.7737 205.969 54.8334 206.215 54.9064C206.685 55.0589 207.044 55.2645 207.269 55.5165C207.501 55.7752 207.607 56.1134 207.607 56.5246" fill="white"></path><path d="M27.4498 67.1621C26.634 67.1621 25.8316 67.1356 25.049 67.0825L23.4706 66.9764L24.2532 64.821L23.1854 64.7083L22.4161 66.8172L21.3815 66.6315C20.274 66.4259 19.1996 66.1739 18.1849 65.8689L16.7524 65.4444L17.966 63.3819L17.084 63.0768L15.8902 65.0995L14.8755 64.6552C13.9006 64.2307 12.9589 63.7466 12.0702 63.2161L10.8963 62.5197L12.4814 60.6495L11.7718 60.1852L10.2066 62.0356L9.25825 61.2861C8.44251 60.6362 7.6732 59.9465 6.97685 59.2236L6.13458 58.3548L8.01144 56.7631L7.46761 56.153L5.60402 57.7314L4.82145 56.6637C4.2312 55.8546 3.68075 54.9858 3.18335 54.0904L2.65942 53.1421L4.7286 51.8953L4.35058 51.1326L2.27477 52.3794L1.75747 51.0331C1.38608 50.0715 1.07438 49.0767 0.822366 48.0752L0.576983 47.107L2.77217 46.2514L2.57984 45.3296L0.371392 46.1917L0.192328 44.6664C0.0729524 43.6252 0.00663198 42.5442 0 41.4433V40.4949L2.21508 40.0572L2.25487 38.9695L0.0265285 39.4072L0.212223 37.8222C0.338231 36.7213 0.523926 35.6005 0.762678 34.4996L0.961638 33.5777H3.08387L3.39558 32.3442H1.26008L1.76411 30.8321C1.79727 30.7326 1.83043 30.6331 1.86359 30.527C1.93654 30.3015 2.00949 30.076 2.09571 29.8373C2.34772 29.1343 2.65279 28.3849 3.01755 27.536L3.40884 26.634L5.35201 27.0585L5.97542 25.7453L4.01898 25.3209L4.76176 23.9812C5.35864 22.9069 5.99531 21.8524 6.66514 20.851L7.25539 19.9623L8.95981 20.7913L9.89492 19.4781L8.19713 18.6558L9.09245 17.5482C9.89492 16.5534 10.7305 15.5984 11.5662 14.7164L12.3819 13.8608L13.768 15.0546L14.9618 13.8608L13.5823 12.6803L14.5572 11.8182C15.4989 10.9826 16.4871 10.1735 17.4885 9.41078L18.5364 8.61494L19.5511 10.1138L20.9239 9.13224L19.9291 7.66657L20.9305 7.0299C21.9718 6.3667 23.066 5.73003 24.1935 5.13315L25.4801 4.45006L26.077 6.19427L27.5028 5.49128L26.9192 3.7736L27.9273 3.34915C29.0879 2.86502 30.2485 2.4273 31.3825 2.05591L32.8615 1.57178L33.0206 3.49505L34.4001 3.0905L34.2476 1.20702L35.2622 0.9749C36.4361 0.70962 37.6166 0.497398 38.7772 0.33823L40.3689 0.126007L40.0771 2.14213L41.3172 2.01612L41.6024 0.0530545L42.6237 0.0198951C43.0084 0.00663117 43.3931 0 43.7645 0C44.547 0 45.3097 0.0265272 46.0392 0.0795831L47.611 0.192326L46.8881 2.20182L47.9559 2.31456L48.6588 0.351494L49.6868 0.530558C50.728 0.716254 51.7958 0.961636 52.8635 1.27334L54.3093 1.69115L53.1752 3.62769L54.0573 3.93277L55.1715 2.02938L56.1861 2.47373C57.1544 2.89818 58.0895 3.37568 58.9782 3.89297L60.1521 4.5827L58.6599 6.35344L59.3629 6.81768L60.8484 5.06683L61.7902 5.80961C62.5926 6.43965 63.3553 7.12275 64.0649 7.84563L64.9205 8.71442L63.1232 10.2398L63.667 10.8499L65.451 9.3312L66.2336 10.3923C66.8305 11.2014 67.3876 12.0636 67.8783 12.9456L68.4089 13.9006L66.3994 15.1077L66.7774 15.8703L68.7935 14.6633L69.3175 15.9963C69.6822 16.9381 70.0072 17.9262 70.2658 18.9409L70.5179 19.9158L68.3625 20.7581L68.5548 21.6866L70.7301 20.8443L70.9158 22.3564C71.0484 23.4109 71.1147 24.4919 71.128 25.5663V26.5213L68.9262 26.9524L68.8864 28.0466L71.1081 27.6089L70.9357 29.1874C70.8163 30.2816 70.6372 31.4024 70.3985 32.5232L70.1995 33.4517H68.0441L67.7324 34.6853H69.8878L69.3904 36.2305C69.2777 36.5953 69.1517 36.9667 69.019 37.3513C68.7869 37.9946 68.515 38.6777 68.1635 39.5001L67.7722 40.4087L65.7694 39.971L65.146 41.2907L67.1554 41.7284L66.4259 43.0615C65.8423 44.1358 65.199 45.1969 64.5292 46.2116L63.9389 47.1003L62.1616 46.2382L61.2265 47.5513L63.0038 48.4135L62.1151 49.521C61.3193 50.5158 60.4837 51.4774 59.6348 52.3728L58.8257 53.2349L57.3666 51.9815L56.1663 53.1819L57.6187 54.4287L56.6504 55.2908C55.7153 56.1265 54.7271 56.9422 53.6992 57.7248L52.6447 58.5272L51.5703 56.9289L50.1975 57.9105L51.2586 59.4756L50.2638 60.1123C49.1894 60.7954 48.0819 61.4387 46.9743 62.0289L45.6877 62.712L45.0511 60.8418L43.6252 61.5448L44.2486 63.3819L43.2472 63.8063C42.1065 64.2904 40.9326 64.7281 39.7587 65.1194L38.2732 65.6102L38.1007 63.5344L36.7213 63.9389L36.8871 65.9683L35.8724 66.1938C34.6919 66.4591 33.4981 66.6779 32.3309 66.8305L30.7392 67.0493L31.0509 64.8807L29.8108 65.0067L29.4991 67.1223L28.4711 67.1488C28.1196 67.1554 27.7747 67.1621 27.4299 67.1621H27.4498ZM26.8131 64.8409C27.0054 64.8409 27.1978 64.8409 27.3967 64.8409L27.6819 62.8845L33.8961 62.261L33.6043 64.2838C33.843 64.244 34.0818 64.1976 34.3205 64.1512L34.168 62.261L40.3026 60.4638L40.4617 62.4003C40.7336 62.3008 40.9989 62.1947 41.2708 62.0886L40.6872 60.3776L46.4902 57.5192L47.0937 59.2833C47.3722 59.1241 47.6508 58.9583 47.9293 58.7925L46.9478 57.3401L52.2136 53.5599L53.2349 55.0786C53.5002 54.8664 53.7588 54.6475 54.0175 54.4353L52.6845 53.288L57.234 48.7384L58.6334 49.9388C58.8522 49.6934 59.0644 49.4481 59.2833 49.196L57.6717 48.4135L61.3525 43.2339L63.0569 44.0629C63.216 43.8109 63.3686 43.5589 63.5211 43.3068L61.7172 42.9155L64.37 37.2784L66.2999 37.6962C66.3994 37.4508 66.4856 37.2187 66.5718 36.9998H64.6486L66.1341 31.1239H68.1967C68.2298 30.9249 68.2696 30.726 68.3028 30.527L66.353 30.9117L66.5519 25.049L68.6609 24.6312C68.6609 24.472 68.6476 24.3128 68.6344 24.1537L66.7244 24.8965L65.5837 19.3322L67.6263 18.5364C67.5865 18.417 67.5534 18.291 67.5136 18.1716L65.7428 19.2327L63.2757 14.2521L63.415 14.1659L59.7276 10.0276L59.8205 9.94797L55.1051 6.8641L56.4912 5.226C56.3851 5.17294 56.279 5.11989 56.1663 5.06683L55.1516 6.79115L49.6337 4.90103L50.675 3.12366C50.5357 3.0905 50.3898 3.05734 50.2505 3.03082L49.6006 4.83471L43.5788 4.21131L44.2486 2.34772C44.0629 2.34772 43.8772 2.34772 43.6915 2.34772L43.4329 4.15825L37.212 4.78166L37.484 2.90481C37.2585 2.9446 37.0264 2.99102 36.8009 3.03082L36.9468 4.77502L30.8122 6.57229L30.6663 4.77502C30.4076 4.86787 30.149 4.96735 29.8903 5.07346L30.4275 6.65851L24.6245 9.51026L24.0675 7.87216C23.7956 8.0247 23.5236 8.18386 23.2584 8.34303L24.1736 9.68932L18.9078 13.4696L17.9461 12.0437C17.6875 12.2493 17.4355 12.4615 17.1835 12.6671L18.4303 13.7348L13.8807 18.291L12.5477 17.1503C12.3355 17.3891 12.1233 17.6278 11.911 17.8732L13.4364 18.616L9.74901 23.8022L8.11755 23.0063C7.96501 23.2517 7.81248 23.4971 7.66657 23.7425L9.39752 24.1205L6.74473 29.7511L4.86124 29.3465C4.76176 29.5853 4.66892 29.8108 4.58933 30.0362H6.45955L4.98062 35.9122H2.93797C2.90481 36.1111 2.86502 36.3035 2.83186 36.5024L4.76176 36.1244L4.5628 41.9871L2.43394 42.4049C2.44057 42.5641 2.4472 42.7299 2.45383 42.889L4.37711 42.1396L5.51781 47.7038L3.42873 48.5196C3.46853 48.6456 3.50169 48.7716 3.54148 48.8976L5.35864 47.81L7.82574 52.7906L7.6931 52.8702L11.3805 57.0085L11.2876 57.0881L16.003 60.1653L14.524 61.9162C14.6368 61.9759 14.7495 62.0289 14.8689 62.0886L15.9565 60.2449L21.4744 62.135L20.3469 64.0517C20.4995 64.0848 20.6454 64.1246 20.7979 64.1578L21.5009 62.2146L27.5227 62.838L26.7932 64.8475L26.8131 64.8409ZM9.62301 58.5073C9.70922 58.5869 9.79544 58.6599 9.88165 58.7395L11.2213 57.1544L9.62301 58.514V58.5073ZM5.87594 53.9644C5.93562 54.0639 5.99531 54.1568 6.06163 54.2562L7.68647 52.8768L5.87594 53.9644ZM65.0067 12.8395L63.4681 14.1526L65.1857 13.1181C65.1261 13.0252 65.0664 12.9324 65.0067 12.8395ZM61.1668 8.39609L59.8802 9.91481L61.4122 8.61494C61.3326 8.54199 61.253 8.46904 61.1668 8.39609Z" fill="white"></path><path d="M67.0417 39.0624L65.072 38.6313L63.4339 42.1065L65.3506 42.5243C64.7802 43.5655 64.1635 44.5935 63.5003 45.5883L61.7494 44.7394L59.4415 47.9824L61.1459 48.8114C60.3766 49.7731 59.5741 50.7015 58.7319 51.5902L57.2994 50.3567L54.4211 53.235L55.8204 54.4353C54.892 55.2643 53.9303 56.0535 52.9421 56.8096L51.8877 55.2444L48.565 57.6253L49.593 59.144C48.5518 59.8072 47.484 60.4307 46.3897 61.0076L45.7663 59.1772L42.1519 60.9612L42.7621 62.7452C41.6412 63.2161 40.5138 63.6405 39.3731 64.0186L39.2073 61.9958L35.4536 63.0967L35.6128 65.0598C34.4721 65.3184 33.3247 65.524 32.1774 65.6832L32.4825 63.5676L28.7553 63.939L28.4569 65.9816C27.3427 66.0148 26.2418 65.9949 25.1342 65.9153L25.8969 63.813L22.3488 63.4416L21.6127 65.4776C20.5582 65.2853 19.5369 65.0399 18.5487 64.7481L19.7292 62.7386L16.5259 61.6443L15.3786 63.5875C14.4501 63.1763 13.5548 62.7253 12.6993 62.2147L14.2445 60.3909L11.5254 58.6135L10.0266 60.3842C9.25728 59.7741 8.5344 59.1242 7.85793 58.4278L9.69499 56.8693L7.57939 54.4884L5.80865 55.9939C5.2383 55.2113 4.72101 54.3955 4.25013 53.5467L6.27952 52.3264L4.85364 49.4547L2.89058 50.6352C2.53908 49.72 2.24064 48.7783 1.99526 47.8034L4.14402 46.9611L3.48082 43.7181L1.39175 44.5338C1.27237 43.5191 1.21269 42.4911 1.20605 41.4367L3.38798 41.0122L3.50735 37.5371L1.40501 37.9482C1.53102 36.8871 1.70345 35.8127 1.94221 34.7317H4.03128L4.9266 31.177H2.91711C3.02322 30.852 3.1227 30.5337 3.24207 30.2087C3.51399 29.4527 3.81906 28.7165 4.13739 27.9804L6.05403 28.3982L7.69213 24.923L5.83518 24.5185C6.41216 23.4772 7.02893 22.4626 7.6855 21.4744L9.36339 22.2901L11.6713 19.0404L10.0465 18.2512C10.8092 17.3029 11.6183 16.381 12.4605 15.4923L13.8267 16.6662L16.6984 13.7879L15.3786 12.6539C16.3004 11.8315 17.2555 11.0489 18.237 10.3061L19.2318 11.7784L22.5478 9.39755L21.5861 7.98494C22.6274 7.32837 23.6818 6.7116 24.7629 6.14125L25.3465 7.84566L28.9609 6.06829L28.3972 4.4103C29.5047 3.94606 30.6255 3.52161 31.7596 3.15022L31.9121 5.02707L35.6658 3.92616L35.5133 2.10237C36.6407 1.84372 37.7814 1.63813 38.9221 1.48559L38.637 3.44866L42.3641 3.07727L42.636 1.18052C43.7369 1.14736 44.8379 1.16063 45.9255 1.24021L45.2225 3.19665L48.764 3.5614L49.4471 1.66466C50.5016 1.85035 51.5096 2.09574 52.4912 2.37428L51.3903 4.25113L54.5869 5.34541L55.6613 3.52161C56.5897 3.92616 57.4784 4.37714 58.3207 4.87454L56.8683 6.59222L59.5808 8.36959L61 6.69833C61.7627 7.30184 62.4856 7.94514 63.162 8.62824L61.4112 10.1138L63.5334 12.4881L65.2312 11.0423C65.8082 11.8182 66.3255 12.6273 66.7963 13.4696L64.8333 14.6501L66.2592 17.5217L68.1758 16.3744C68.5339 17.283 68.8324 18.2247 69.0844 19.193L66.9754 20.0154L67.6386 23.2584L69.7012 22.4559C69.8272 23.464 69.8935 24.4919 69.9001 25.5398L67.7315 25.9642L67.6121 29.446L69.7211 29.0282C69.6083 30.0893 69.4359 31.1637 69.2038 32.2514H67.0882L66.1862 35.8061H68.2421C68.1227 36.1775 68.0034 36.5489 67.8707 36.9269C67.6187 37.6299 67.3335 38.3263 67.0351 39.016" fill="#0072B9"></path><path d="M36.8202 47.7306H28.3445L13.92 29.0948V47.7306H5.85547V20.5859H16.3605L28.7557 36.1446V20.5859H36.8202V47.7306Z" fill="white"></path><path d="M64.2313 47.7306H55.4638V29.5457L49.1965 41.3374H43.1813L36.9207 29.5457V47.7306H28.5645V20.5859H38.8241L46.431 34.1881L54.0114 20.5859H64.2313V47.7306Z" fill="white"></path></svg></g></g><defs><clipPath id="SvgjsClipPath1043"><rect width="1000" height="1000" x="0" y="0" rx="350" ry="350"></rect></clipPath></defs></svg>