<svg xmlns="http://www.w3.org/2000/svg" viewBox="0 0 760 220" role="img" aria-labelledby="title desc">
  <title id="title">Nicolais Mario e Hijo</title>
  <desc id="desc">Logo de Nicolais Mario e Hijo repuestos automotores</desc>
  <defs>
    <linearGradient id="blue" x1="0" x2="1" y1="0" y2="1">
      <stop offset="0" stop-color="#1393d1"/>
      <stop offset="1" stop-color="#0067b1"/>
    </linearGradient>
  </defs>
  <g fill="none" fill-rule="evenodd">
    <circle cx="96" cy="102" r="73" fill="url(#blue)" stroke="#fff" stroke-width="9"/>
    <path d="M96 19l5 14 12-10 1 16 15-6-4 15 16-1-9 13 15 5-13 9 12 10-16 3 8 14-16-1 3 16-14-6-2 16-12-10-6 15-8-14-11 11-3-16-14 7 1-16-16 3 6-15-15-2 11-11-13-8 15-6-10-13 16 1-5-15 15 5V23l13 10 5-14Z" fill="#fff" opacity=".22"/>
    <text x="96" y="126" text-anchor="middle" font-family="Montserrat, Arial, sans-serif" font-size="76" font-weight="800" fill="#fff">M</text>
    <text x="190" y="82" font-family="Montserrat, Arial, sans-serif" font-size="48" font-weight="800" fill="#008bd2">Nicolais</text>
    <text x="190" y="128" font-family="Montserrat, Arial, sans-serif" font-size="48" font-weight="800" fill="#008bd2">Mario e Hijo</text>
    <text x="194" y="162" font-family="Montserrat, Arial, sans-serif" font-size="22" font-weight="700" letter-spacing="2.6" fill="#fff">REPUESTOS AUTOMOTORES</text>
  </g>
</svg>
